#N canvas 0 23 753 300 12;
#X obj 162 156 lj_bandpass~;
#X obj 57 115 phasor~ 440;
#X obj 49 31 tgl 15 0 empty empty empty 17 7 0 10 -262144 -1 -1 0 1
;
#X msg 49 51 : pd dsp \$1;
#X obj 106 244 dac~;
#X obj 360 89 hsl 128 15 0 127 0 0 empty empty empty -2 -8 0 10 -262144
-1 -1 1900 1;
#X obj 367 124 hsl 128 15 0 127 0 0 empty empty empty -2 -8 0 10 -262144
-1 -1 1100 1;
#X connect 0 0 4 0;
#X connect 0 0 4 1;
#X connect 1 0 0 0;
#X connect 1 0 4 0;
#X connect 1 0 4 1;
#X connect 2 0 3 0;
#X connect 5 0 0 0;
#X connect 6 0 0 0;
