#N canvas -736 -310 718 972 12;
#X obj 116 243 sig~;
#X obj 104 342 vcf~;
#X obj 178 337 vcf~;
#X obj 127 468 dac~;
#X floatatom 116 211 5 0 0 0 - - -;
#X obj 205 170 hsl 128 15 0 5000 0 0 empty empty empty -2 -8 0 10 -262144
-1 -1 2100 1;
#X floatatom 204 243 5 0 0 0 - - -;
#X obj 106 117 *~ 0.1;
#X obj 180 118 *~ 0.1;
#X obj 106 69 phasor~ 700;
#X connect 0 0 1 1;
#X connect 0 0 2 1;
#X connect 1 0 3 0;
#X connect 2 0 3 1;
#X connect 4 0 0 0;
#X connect 5 0 4 0;
#X connect 6 0 1 2;
#X connect 6 0 2 2;
#X connect 7 0 1 0;
#X connect 8 0 2 0;
#X connect 9 0 7 0;
#X connect 9 0 8 0;
