#N canvas 1952 -113 840 565 12;
#N canvas 0 23 607 533 bandpass 0;
#X obj 201 125 sig~;
#X obj 189 224 vcf~;
#X obj 263 219 vcf~;
#X floatatom 201 93 5 0 0 0 - - -;
#X floatatom 289 125 5 0 0 0 - - -;
#X obj 201 40 inlet;
#X obj 215 265 outlet~;
#X obj 283 268 outlet~;
#X obj 125 186 inlet~;
#X obj 354 189 inlet~;
#X connect 0 0 1 1;
#X connect 0 0 2 1;
#X connect 1 0 6 0;
#X connect 2 0 7 0;
#X connect 3 0 0 0;
#X connect 4 0 1 2;
#X connect 4 0 2 2;
#X connect 5 0 3 0;
#X connect 8 0 1 0;
#X connect 9 0 2 0;
#X restore 148 267 pd bandpass;
#X obj 308 29 openpanel;
#X msg 253 28 start;
#X msg 254 55 stop;
#X msg 307 58 open \$1;
#X obj 308 91 readsf~ 2;
#X obj 146 291 hsl 128 15 0 5000 0 0 empty empty empty -2 -8 0 10 -262144
-1 -1 600 1;
#N canvas 0 23 607 533 bandpass 0;
#X obj 201 125 sig~;
#X obj 189 224 vcf~;
#X obj 263 219 vcf~;
#X floatatom 201 93 5 0 0 0 - - -;
#X floatatom 289 125 5 0 0 0 - - -;
#X obj 200 62 inlet;
#X obj 215 265 outlet~;
#X obj 283 268 outlet~;
#X obj 125 186 inlet~;
#X obj 354 189 inlet~;
#X connect 0 0 1 1;
#X connect 0 0 2 1;
#X connect 1 0 6 0;
#X connect 2 0 7 0;
#X connect 3 0 0 0;
#X connect 4 0 1 2;
#X connect 4 0 2 2;
#X connect 5 0 3 0;
#X connect 8 0 1 0;
#X connect 9 0 2 0;
#X restore 304 268 pd bandpass;
#X obj 302 289 hsl 128 15 0 5000 0 0 empty empty empty -2 -8 0 10 -262144
-1 -1 4200 1;
#N canvas 0 23 607 533 bandpass 0;
#X obj 201 125 sig~;
#X obj 189 224 vcf~;
#X obj 263 219 vcf~;
#X floatatom 201 93 5 0 0 0 - - -;
#X floatatom 289 125 5 0 0 0 - - -;
#X obj 200 62 inlet;
#X obj 215 265 outlet~;
#X obj 283 268 outlet~;
#X obj 125 186 inlet~;
#X obj 354 189 inlet~;
#X connect 0 0 1 1;
#X connect 0 0 2 1;
#X connect 1 0 6 0;
#X connect 2 0 7 0;
#X connect 3 0 0 0;
#X connect 4 0 1 2;
#X connect 4 0 2 2;
#X connect 5 0 3 0;
#X connect 8 0 1 0;
#X connect 9 0 2 0;
#X restore 450 267 pd bandpass;
#X obj 448 288 hsl 128 15 0 5000 0 0 empty empty empty -2 -8 0 10 -262144
-1 -1 6800 1;
#N canvas 0 23 607 533 bandpass 1;
#X obj 201 125 sig~;
#X obj 189 224 vcf~;
#X obj 263 219 vcf~;
#X floatatom 201 93 5 0 0 0 - - -;
#X floatatom 289 125 5 0 0 0 - - -;
#X obj 200 62 inlet;
#X obj 215 265 outlet~;
#X obj 283 268 outlet~;
#X obj 125 186 inlet~;
#X obj 354 189 inlet~;
#X connect 0 0 1 1;
#X connect 0 0 2 1;
#X connect 1 0 6 0;
#X connect 2 0 7 0;
#X connect 3 0 0 0;
#X connect 4 0 1 2;
#X connect 4 0 2 2;
#X connect 5 0 3 0;
#X connect 8 0 1 0;
#X connect 9 0 2 0;
#X restore 596 269 pd bandpass;
#X obj 594 290 hsl 128 15 0 5000 0 0 empty empty empty -2 -8 0 10 -262144
-1 -1 10400 1;
#X obj 146 470 dac~ 1 2;
#X obj 300 476 dac~ 1 2;
#X obj 472 481 dac~ 1 2;
#X obj 613 485 dac~ 1 2;
#X msg 24 53 \; pd dsp \$1;
#X obj 25 22 tgl 15 0 empty empty empty 17 7 0 10 -262144 -1 -1 0 1
;
#X obj 309 8 bng 15 250 50 0 empty empty empty 17 7 0 10 -262144 -1
-1;
#X obj 286 128 *~ 0.5;
#X obj 364 129 *~ 0.5;
#X connect 0 0 13 0;
#X connect 0 1 13 1;
#X connect 1 0 4 0;
#X connect 2 0 5 0;
#X connect 3 0 5 0;
#X connect 4 0 5 0;
#X connect 5 0 20 0;
#X connect 5 1 21 0;
#X connect 6 0 0 1;
#X connect 7 0 14 0;
#X connect 7 1 14 1;
#X connect 8 0 7 1;
#X connect 9 0 15 0;
#X connect 9 1 15 1;
#X connect 10 0 9 1;
#X connect 11 0 16 0;
#X connect 11 1 16 1;
#X connect 12 0 11 1;
#X connect 18 0 17 0;
#X connect 19 0 1 0;
#X connect 20 0 0 0;
#X connect 20 0 7 0;
#X connect 20 0 9 0;
#X connect 20 0 11 0;
#X connect 21 0 0 2;
#X connect 21 0 7 2;
#X connect 21 0 9 2;
#X connect 21 0 11 2;
