#N canvas 221 23 1030 684 12;
#N canvas 0 23 1280 533 bandpass 0;
#X obj 201 125 sig~;
#X floatatom 201 93 5 0 0 0 - - -;
#X obj 201 40 inlet;
#X obj 215 265 outlet~;
#X obj 283 268 outlet~;
#X obj 125 186 inlet~;
#X obj 354 189 inlet~;
#X obj 292 144 inlet q;
#X obj 189 224 vcf~ 50 3;
#X obj 263 220 vcf~ 50 3;
#X connect 0 0 8 1;
#X connect 0 0 9 1;
#X connect 1 0 0 0;
#X connect 2 0 1 0;
#X connect 5 0 8 0;
#X connect 6 0 9 0;
#X connect 7 0 8 2;
#X connect 7 0 9 2;
#X connect 8 0 3 0;
#X connect 9 0 4 0;
#X restore 148 267 pd bandpass;
#X obj 308 29 openpanel;
#X msg 253 28 start;
#X msg 254 55 stop;
#X msg 307 58 open \$1;
#X obj 308 91 readsf~ 2;
#X obj 146 291 hsl 128 15 0 5000 0 0 empty empty empty -2 -8 0 10 -262144
-1 -1 1300 1;
#X obj 164 616 dac~ 1 2;
#X msg 24 53 \; pd dsp \$1;
#X obj 25 22 tgl 15 0 empty empty empty 17 7 0 10 -262144 -1 -1 1 1
;
#X obj 309 8 bng 15 250 50 0 empty empty empty 17 7 0 10 -262144 -1
-1;
#X obj 286 128 *~ 0.5;
#X obj 364 129 *~ 0.5;
#X obj 76 270 nbx 5 14 -1e+37 1e+37 0 0 empty empty empty 0 -8 0 10
-262144 -1 -1 0 256;
#N canvas 0 23 1280 533 bandpass 0;
#X obj 201 125 sig~;
#X obj 189 224 vcf~;
#X obj 263 219 vcf~;
#X floatatom 201 93 5 0 0 0 - - -;
#X obj 201 40 inlet;
#X obj 215 265 outlet~;
#X obj 283 268 outlet~;
#X obj 125 186 inlet~;
#X obj 354 189 inlet~;
#X obj 292 144 inlet;
#X connect 0 0 1 1;
#X connect 0 0 2 1;
#X connect 1 0 5 0;
#X connect 2 0 6 0;
#X connect 3 0 0 0;
#X connect 4 0 3 0;
#X connect 7 0 1 0;
#X connect 8 0 2 0;
#X connect 9 0 1 2;
#X connect 9 0 2 2;
#X restore 328 261 pd bandpass;
#X obj 326 285 hsl 128 15 0 5000 0 0 empty empty empty -2 -8 0 10 -262144
-1 -1 9200 1;
#X obj 263 268 nbx 5 14 -1e+37 1e+37 0 0 empty empty empty 0 -8 0 10
-262144 -1 -1 3 256;
#N canvas 0 23 1280 533 bandpass 0;
#X obj 201 125 sig~;
#X obj 189 224 vcf~;
#X obj 263 219 vcf~;
#X floatatom 201 93 5 0 0 0 - - -;
#X obj 201 40 inlet;
#X obj 215 265 outlet~;
#X obj 283 268 outlet~;
#X obj 125 186 inlet~;
#X obj 354 189 inlet~;
#X obj 292 144 inlet;
#X connect 0 0 1 1;
#X connect 0 0 2 1;
#X connect 1 0 5 0;
#X connect 2 0 6 0;
#X connect 3 0 0 0;
#X connect 4 0 3 0;
#X connect 7 0 1 0;
#X connect 8 0 2 0;
#X connect 9 0 1 2;
#X connect 9 0 2 2;
#X restore 493 259 pd bandpass;
#X obj 491 283 hsl 128 15 0 5000 0 0 empty empty empty -2 -8 0 10 -262144
-1 -1 8400 1;
#X obj 428 263 nbx 5 14 -1e+37 1e+37 0 0 empty empty empty 0 -8 0 10
-262144 -1 -1 1 256;
#N canvas 0 23 1280 533 bandpass 0;
#X obj 201 125 sig~;
#X obj 189 224 vcf~;
#X obj 263 219 vcf~;
#X floatatom 201 93 5 0 0 0 - - -;
#X obj 201 40 inlet;
#X obj 215 265 outlet~;
#X obj 283 268 outlet~;
#X obj 125 186 inlet~;
#X obj 354 189 inlet~;
#X obj 292 144 inlet;
#X connect 0 0 1 1;
#X connect 0 0 2 1;
#X connect 1 0 5 0;
#X connect 2 0 6 0;
#X connect 3 0 0 0;
#X connect 4 0 3 0;
#X connect 7 0 1 0;
#X connect 8 0 2 0;
#X connect 9 0 1 2;
#X connect 9 0 2 2;
#X restore 660 256 pd bandpass;
#X obj 658 280 hsl 128 15 0 5000 0 0 empty empty empty -2 -8 0 10 -262144
-1 -1 10200 1;
#X obj 595 260 nbx 5 14 -1e+37 1e+37 0 0 empty empty empty 0 -8 0 10
-262144 -1 -1 1 256;
#N canvas 82 34 979 542 distortion 0;
#X msg 134 230 distortionMod \$1;
#X msg 12 204 1;
#X msg 134 198 2;
#X msg 228 194 3;
#X obj 296 285 rtap_distortion9000~;
#X floatatom 449 138 5 0 0 0 - - -;
#X msg 452 172 drywet \$1;
#X obj 13 178 inlet;
#X obj 134 172 inlet;
#X obj 229 171 inlet;
#X obj 449 111 inlet;
#X obj 294 236 inlet~;
#X obj 295 322 outlet~;
#X connect 0 0 4 0;
#X connect 1 0 0 0;
#X connect 2 0 0 0;
#X connect 3 0 0 0;
#X connect 4 0 12 0;
#X connect 5 0 6 0;
#X connect 6 0 4 0;
#X connect 7 0 1 0;
#X connect 8 0 2 0;
#X connect 9 0 3 0;
#X connect 10 0 5 0;
#X connect 11 0 4 0;
#X restore 159 446 pd distortion;
#X obj 172 373 bng 15 250 50 0 empty empty empty 17 7 0 10 -262144
-1 -1;
#X obj 121 420 bng 15 250 50 0 empty empty empty 17 7 0 10 -262144
-1 -1;
#X obj 145 332 bng 15 250 50 0 empty empty empty 17 7 0 10 -262144
-1 -1;
#X obj 31 485 hsl 128 15 0.01 1 1 1 empty empty Dry/Wet -2 -8 0 10
-262144 -1 -1 2700 1;
#X obj 415 608 dac~ 1 2;
#N canvas 82 34 979 542 distortion 0;
#X msg 134 230 distortionMod \$1;
#X msg 12 204 1;
#X msg 134 198 2;
#X msg 228 194 3;
#X obj 296 285 rtap_distortion9000~;
#X floatatom 449 138 5 0 0 0 - - -;
#X msg 452 172 drywet \$1;
#X obj 13 178 inlet;
#X obj 134 172 inlet;
#X obj 229 171 inlet;
#X obj 449 111 inlet;
#X obj 294 236 inlet~;
#X obj 295 322 outlet~;
#X connect 0 0 4 0;
#X connect 1 0 0 0;
#X connect 2 0 0 0;
#X connect 3 0 0 0;
#X connect 4 0 12 0;
#X connect 5 0 6 0;
#X connect 6 0 4 0;
#X connect 7 0 1 0;
#X connect 8 0 2 0;
#X connect 9 0 3 0;
#X connect 10 0 5 0;
#X connect 11 0 4 0;
#X restore 411 435 pd distortion;
#X obj 423 365 bng 15 250 50 0 empty empty empty 17 7 0 10 -262144
-1 -1;
#X obj 372 409 bng 15 250 50 0 empty empty empty 17 7 0 10 -262144
-1 -1;
#X obj 396 324 bng 15 250 50 0 empty empty empty 17 7 0 10 -262144
-1 -1;
#X obj 282 477 hsl 128 15 0.01 1 1 1 empty empty Dry/Wet -2 -8 0 10
-262144 -1 -1 10200 1;
#X obj 625 611 dac~ 1 2;
#N canvas 82 34 979 542 distortion 0;
#X msg 134 230 distortionMod \$1;
#X msg 12 204 1;
#X msg 134 198 2;
#X msg 228 194 3;
#X obj 296 285 rtap_distortion9000~;
#X floatatom 449 138 5 0 0 0 - - -;
#X msg 452 172 drywet \$1;
#X obj 13 178 inlet;
#X obj 134 172 inlet;
#X obj 229 171 inlet;
#X obj 449 111 inlet;
#X obj 294 236 inlet~;
#X obj 295 322 outlet~;
#X connect 0 0 4 0;
#X connect 1 0 0 0;
#X connect 2 0 0 0;
#X connect 3 0 0 0;
#X connect 4 0 12 0;
#X connect 5 0 6 0;
#X connect 6 0 4 0;
#X connect 7 0 1 0;
#X connect 8 0 2 0;
#X connect 9 0 3 0;
#X connect 10 0 5 0;
#X connect 11 0 4 0;
#X restore 621 438 pd distortion;
#X obj 633 368 bng 15 250 50 0 empty empty empty 17 7 0 10 -262144
-1 -1;
#X obj 582 412 bng 15 250 50 0 empty empty empty 17 7 0 10 -262144
-1 -1;
#X obj 606 327 bng 15 250 50 0 empty empty empty 17 7 0 10 -262144
-1 -1;
#X obj 492 480 hsl 128 15 0.01 1 1 1 empty empty Dry/Wet -2 -8 0 10
-262144 -1 -1 9800 1;
#X obj 865 616 dac~ 1 2;
#N canvas 82 34 979 542 distortion 0;
#X msg 134 230 distortionMod \$1;
#X msg 12 204 1;
#X msg 134 198 2;
#X msg 228 194 3;
#X obj 296 285 rtap_distortion9000~;
#X floatatom 449 138 5 0 0 0 - - -;
#X msg 452 172 drywet \$1;
#X obj 13 178 inlet;
#X obj 134 172 inlet;
#X obj 229 171 inlet;
#X obj 449 111 inlet;
#X obj 294 236 inlet~;
#X obj 295 322 outlet~;
#X connect 0 0 4 0;
#X connect 1 0 0 0;
#X connect 2 0 0 0;
#X connect 3 0 0 0;
#X connect 4 0 12 0;
#X connect 5 0 6 0;
#X connect 6 0 4 0;
#X connect 7 0 1 0;
#X connect 8 0 2 0;
#X connect 9 0 3 0;
#X connect 10 0 5 0;
#X connect 11 0 4 0;
#X restore 861 443 pd distortion;
#X obj 873 373 bng 15 250 50 0 empty empty empty 17 7 0 10 -262144
-1 -1;
#X obj 822 417 bng 15 250 50 0 empty empty empty 17 7 0 10 -262144
-1 -1;
#X obj 846 332 bng 15 250 50 0 empty empty empty 17 7 0 10 -262144
-1 -1;
#X obj 732 485 hsl 128 15 0.01 1 1 1 empty empty Dry/Wet -2 -8 0 10
-262144 -1 -1 11300 1;
#X text 13 333 Cubic Distortion;
#X text 14 366 Absolute Square Root;
#X text 14 415 Hard Clipper;
#X connect 0 0 23 3;
#X connect 1 0 4 0;
#X connect 2 0 5 0;
#X connect 3 0 5 0;
#X connect 4 0 5 0;
#X connect 5 0 11 0;
#X connect 5 1 12 0;
#X connect 6 0 0 1;
#X connect 9 0 8 0;
#X connect 10 0 1 0;
#X connect 11 0 0 0;
#X connect 11 0 14 0;
#X connect 11 0 17 0;
#X connect 11 0 20 0;
#X connect 12 0 0 3;
#X connect 12 0 14 3;
#X connect 12 0 17 3;
#X connect 12 0 20 3;
#X connect 13 0 0 2;
#X connect 14 0 29 3;
#X connect 15 0 14 1;
#X connect 16 0 14 2;
#X connect 17 0 35 3;
#X connect 18 0 17 1;
#X connect 19 0 17 2;
#X connect 20 0 41 3;
#X connect 21 0 20 1;
#X connect 22 0 20 2;
#X connect 23 0 7 0;
#X connect 24 0 23 1;
#X connect 25 0 23 2;
#X connect 26 0 23 0;
#X connect 27 0 23 4;
#X connect 29 0 28 0;
#X connect 30 0 29 1;
#X connect 31 0 29 2;
#X connect 32 0 29 0;
#X connect 33 0 29 4;
#X connect 35 0 34 0;
#X connect 36 0 35 1;
#X connect 37 0 35 2;
#X connect 38 0 35 0;
#X connect 39 0 35 4;
#X connect 41 0 40 0;
#X connect 42 0 41 1;
#X connect 43 0 41 2;
#X connect 44 0 41 0;
#X connect 45 0 41 4;
