#N canvas 1749 -280 1401 907 12;
#X obj 209 307 sig~;
#X obj 197 406 vcf~;
#X obj 271 401 vcf~;
#X floatatom 209 275 5 0 0 0 - - -;
#X obj 212 246 hsl 128 15 0 5000 0 0 empty empty empty -2 -8 0 10 -262144
-1 -1 8400 1;
#X floatatom 297 307 5 0 0 0 - - -;
#X msg 24 53 \; pd dsp \$1;
#X obj 25 22 tgl 15 0 empty empty empty 17 7 0 10 -262144 -1 -1 1 1
;
#X obj 214 557 rfft~;
#X obj 193 609 *~;
#X obj 252 610 *~;
#X obj 226 668 +~;
#X obj 225 716 sqrt~;
#X obj 62 811 metro 250;
#X obj 62 788 tgl 15 0 empty empty empty 17 7 0 10 -262144 -1 -1 1
1;
#X obj 17 393 metro 250;
#X obj 19 367 tgl 15 0 empty empty empty 17 7 0 10 -262144 -1 -1 1
1;
#X obj 17 453 tabwrite~ bp_display;
#X obj 497 7 bng 15 250 50 0 empty empty empty 17 7 0 10 -262144 -1
-1;
#X obj 585 14 openpanel;
#X msg 530 13 start;
#X msg 531 40 stop;
#X msg 584 43 open \$1;
#X obj 540 309 sig~;
#X obj 528 408 vcf~;
#X obj 602 403 vcf~;
#X floatatom 540 277 5 0 0 0 - - -;
#X obj 543 246 hsl 128 15 0 5000 0 0 empty empty empty -2 -8 0 10 -262144
-1 -1 3000 1;
#X floatatom 629 309 5 0 0 0 - - -;
#X obj 820 310 sig~;
#X obj 808 409 vcf~;
#X obj 882 404 vcf~;
#X floatatom 820 278 5 0 0 0 - - -;
#X obj 909 237 hsl 128 15 0 5000 0 0 empty empty empty -2 -8 0 10 -262144
-1 -1 3500 1;
#X floatatom 908 310 5 0 0 0 - - -;
#X obj 1099 309 sig~;
#X obj 1087 408 vcf~;
#X obj 1161 403 vcf~;
#X floatatom 1099 277 5 0 0 0 - - -;
#X obj 1188 236 hsl 128 15 0 5000 0 0 empty empty empty -2 -8 0 10
-262144 -1 -1 12100 1;
#X floatatom 1187 309 5 0 0 0 - - -;
#X obj 585 76 readsf~ 2;
#X obj 222 448 dac~ 1 2;
#X obj 553 449 dac~ 1 2;
#X obj 819 449 dac~ 1 2;
#X obj 1112 449 dac~ 1 2;
#X obj 588 621 vu 15 120 empty empty -1 -8 0 10 -66577 -1 1 0;
#X obj 656 618 vu 15 120 empty empty -1 -8 0 10 -66577 -1 1 0;
#X obj 587 574 env~;
#X obj 655 573 env~;
#X obj 328 72 vu 15 120 empty empty -1 -8 0 10 -66577 -1 1 0;
#X obj 396 69 vu 15 120 empty empty -1 -8 0 10 -66577 -1 1 0;
#X obj 327 25 env~;
#X obj 395 24 env~;
#X obj 329 47 - 100;
#X obj 393 45 - 100;
#X obj 588 595 - 100;
#X obj 653 594 - 100;
#N canvas 0 22 450 278 (subpatch) 0;
#X array spektrum_pre 100 float 5;
#A 0 0 0 0 0 0 0 0 0 0 0 0 0 0 0 0 0 0 0 0 0 0 0 0 0 0 0 0 0 0 0 0
0 0 0 0 0 0 0 0 0 0 0 0 0 0 0 0 0 0 0 0 0 0 0 0 0 0 0 0 0 0 0 0 0 0
0 0 0 0 0 0 0 0 0 0 0 0 0 0 0 0 0 0 0 0 0 0 0 0 0 0 0 0 0 0 0 0 0 0
0;
#X coords 0 0.5 99 -0.5 200 140 1 0 0;
#X restore 895 16 graph;
#X obj 728 7 rfft~;
#X obj 707 59 *~;
#X obj 766 60 *~;
#X obj 733 87 +~;
#X obj 734 117 sqrt~;
#X obj 801 123 metro 250;
#X obj 802 104 tgl 15 0 empty empty empty 17 7 0 10 -262144 -1 -1 1
1;
#X obj 734 140 tabwrite~ spektrum_pre;
#X obj 474 563 rfft~;
#X obj 453 615 *~;
#X obj 512 616 *~;
#X obj 486 674 +~;
#X obj 485 722 sqrt~;
#X obj 845 539 rfft~;
#X obj 824 591 *~;
#X obj 883 592 *~;
#X obj 857 650 +~;
#X obj 856 698 sqrt~;
#X obj 1130 545 rfft~;
#X obj 1109 597 *~;
#X obj 1168 598 *~;
#X obj 1142 656 +~;
#X obj 1141 704 sqrt~;
#X obj 668 809 +~;
#X obj 62 840 tabwrite~ spektrum_post;
#N canvas 0 22 450 278 (subpatch) 0;
#X array spektrum_post 100 float 3;
#A 0 0 0 0 0 0 0 0 0 0 0 0 0 0 0 0 0 0 0 0 0 0 0 0 0 0 0 0 0 0 0 0
0 0 0 0 0 0 0 0 0 0 0 0 0 0 0 0 0 0 0 0 0 0 0 0 0 0 0 0 0 0 0 0 0 0
0 0 0 0 0 0 0 0 0 0 0 0 0 0 0 0 0 0 0 0 0 0 0 0 0 0 0 0 0 0 0 0 0 0
0;
#X coords 0 0.5 100 -0.5 200 140 1 0 0;
#X restore 1036 767 graph;
#X obj 563 113 *~ 0.05;
#X obj 641 113 *~ 0.05;
#X connect 0 0 1 1;
#X connect 0 0 2 1;
#X connect 1 0 8 0;
#X connect 1 0 17 0;
#X connect 1 0 42 0;
#X connect 1 0 48 0;
#X connect 2 0 8 0;
#X connect 2 0 42 1;
#X connect 2 1 49 0;
#X connect 3 0 0 0;
#X connect 4 0 3 0;
#X connect 5 0 1 2;
#X connect 5 0 2 2;
#X connect 7 0 6 0;
#X connect 8 0 9 0;
#X connect 8 0 9 1;
#X connect 8 1 10 0;
#X connect 8 1 10 1;
#X connect 9 0 11 0;
#X connect 10 0 11 1;
#X connect 11 0 12 0;
#X connect 12 0 82 0;
#X connect 13 0 83 0;
#X connect 14 0 13 0;
#X connect 15 0 17 0;
#X connect 16 0 15 0;
#X connect 18 0 19 0;
#X connect 19 0 22 0;
#X connect 20 0 41 0;
#X connect 21 0 41 0;
#X connect 22 0 41 0;
#X connect 23 0 24 1;
#X connect 23 0 25 1;
#X connect 24 0 43 0;
#X connect 24 0 48 0;
#X connect 24 0 67 0;
#X connect 25 0 43 1;
#X connect 25 0 49 0;
#X connect 25 0 67 0;
#X connect 26 0 23 0;
#X connect 27 0 26 0;
#X connect 28 0 24 2;
#X connect 28 0 25 2;
#X connect 29 0 30 1;
#X connect 29 0 31 1;
#X connect 30 0 44 0;
#X connect 30 0 48 0;
#X connect 30 0 72 0;
#X connect 31 0 44 1;
#X connect 31 0 49 0;
#X connect 31 0 72 0;
#X connect 32 0 29 0;
#X connect 33 0 32 0;
#X connect 34 0 30 2;
#X connect 34 0 31 2;
#X connect 35 0 36 1;
#X connect 35 0 37 1;
#X connect 36 0 45 0;
#X connect 36 0 48 0;
#X connect 36 0 77 0;
#X connect 37 0 45 1;
#X connect 37 0 49 0;
#X connect 37 0 77 0;
#X connect 38 0 35 0;
#X connect 39 0 38 0;
#X connect 40 0 36 2;
#X connect 40 0 37 2;
#X connect 41 0 85 0;
#X connect 41 1 86 0;
#X connect 48 0 56 0;
#X connect 49 0 57 0;
#X connect 52 0 54 0;
#X connect 53 0 55 0;
#X connect 54 0 50 0;
#X connect 55 0 51 0;
#X connect 56 0 46 0;
#X connect 57 0 47 0;
#X connect 59 0 60 0;
#X connect 59 0 60 1;
#X connect 59 1 61 0;
#X connect 59 1 61 1;
#X connect 60 0 62 0;
#X connect 61 0 62 1;
#X connect 62 0 63 0;
#X connect 63 0 66 0;
#X connect 64 0 66 0;
#X connect 65 0 64 0;
#X connect 67 0 68 0;
#X connect 67 0 68 1;
#X connect 67 1 69 0;
#X connect 67 1 69 1;
#X connect 68 0 70 0;
#X connect 69 0 70 1;
#X connect 70 0 71 0;
#X connect 71 0 82 0;
#X connect 72 0 73 0;
#X connect 72 0 73 1;
#X connect 72 1 74 0;
#X connect 72 1 74 1;
#X connect 73 0 75 0;
#X connect 74 0 75 1;
#X connect 75 0 76 0;
#X connect 76 0 82 0;
#X connect 77 0 78 0;
#X connect 77 0 78 1;
#X connect 77 1 79 0;
#X connect 77 1 79 1;
#X connect 78 0 80 0;
#X connect 79 0 80 1;
#X connect 80 0 81 0;
#X connect 81 0 82 0;
#X connect 82 0 83 0;
#X connect 85 0 1 0;
#X connect 85 0 24 0;
#X connect 85 0 30 0;
#X connect 85 0 36 0;
#X connect 85 0 52 0;
#X connect 85 0 59 0;
#X connect 86 0 2 0;
#X connect 86 0 25 0;
#X connect 86 0 31 0;
#X connect 86 0 37 0;
#X connect 86 0 53 0;
#X connect 86 0 59 0;
