#N canvas 1600 64 1680 986 12;
#X obj 1219 838 dac~;
#X floatatom 28 521 5 0 0 0 - - -;
#N canvas 0 50 450 250 (subpatch) 0;
#X array waveform 80 float 5;
#A 0 0 0 0 0 0 0 0 0 0 0 0 0 0 0 0 0 0 0 0 0 0 0 0 0 0 0 0 0 0 0 0
0 0 0 0 0 0 0 0 0 0 0 0 0 0 0 0 0 0 0 0 0 0 0 0 0 0 0 0 0 0 0 0 0 0
0 0 0 0 0 0 0 0 0 0 0 0 0 0 0;
#X coords 0 1 79 -1 400 200 1 0 0;
#X restore 843 418 graph;
#X obj 1427 76 tabwrite~ waveform;
#X obj 31 495 hsl 150 20 0 1 0 1 empty empty Mix_Band_1 0 -10 1 15
-4034 -1 -1 14900 1;
#X msg 50 424 distortionMod \$1;
#X obj 1429 37 metro 100;
#X obj 1520 483 bng 15 250 50 0 empty empty empty 17 7 0 10 -262144
-1 -1;
#X obj 1519 504 openpanel;
#X obj 1520 588 readsf~;
#X msg 1529 544 start;
#X msg 1532 565 stop;
#X msg 1520 524 open \$1;
#X obj 1371 481 osc~ 440;
#X floatatom 685 204 5 0 0 0 - - -;
#X obj 798 179 hsl 150 25 1 10 0 1 empty empty Saturation_Band_1 -2
-10 1 15 -4032 -1 -1 5900 1;
#X obj 1430 12 tgl 15 0 empty empty empty 17 7 0 10 -262144 -1 -1 1
1;
#X obj 1287 425 + 6;
#X floatatom 51 403 3 9 14 0 - - -;
#X msg 685 226 saturation \$1;
#X obj 1328 482 adc~;
#X floatatom 27 71 10 0 0 0 - - -;
#X obj 30 35 hsl 200 30 50 22000 1 0 empty empty Frequency_Band_1 30
-10 1 15 -159808 -1 -1 19000 1;
#X obj 26 620 hsl 150 25 0.1 16 0 0 empty empty Q_Band_1 -2 -10 1 15
-261234 -1 -1 8200 1;
#X floatatom 23 651 5 0 0 0 - - -;
#X obj 1434 481 phasor~ 440;
#X msg 23 675 quality \$1;
#X obj 811 726 rtap_distortion9000~;
#X msg 28 543 mix \$1;
#X obj 51 189 vradio 30 1 1 6 empty empty SOFT_CLIP_WAVESHAPER -40
-10 1 15 -257985 -159808 -1 4;
#X obj 1287 176 vradio 30 1 0 8 empty empty EXOTIC_DISTORTION -40 -10
1 15 -66577 -258113 -1 2;
#X text 1249 212 ATSR;
#X text 1242 180 FEXP2;
#X text 5 344 FEXP1;
#X text 11 313 ATAN;
#X text 11 284 TANH;
#X text 12 256 SIG2;
#X text 18 227 SIG;
#X text 1256 244 SQS;
#X text 1250 273 CUBE;
#X text 1257 303 HWR;
#X text 1257 331 FWR;
#X text 1257 362 SQR;
#X text 1243 393 ASQRT;
#X text 12 197 ARRY;
#X text 82 225 (SAT);
#X text 81 287 (SAT);
#X text 81 313 (SAT);
#X text 7 14 50 Hz;
#X text 211 17 20kHz;
#X msg 28 92 frequency \$1;
#X obj 1366 623 s~ sig;
#X obj 841 696 r~ sig;
#X obj 1342 842 s~ spec;
#X obj 1434 56 r~ spec;
#X obj 25 761 hsl 150 25 0 40 0 0 empty empty Gain_Band_1 -2 -10 1
15 -260097 -1 -1 14900 1;
#X floatatom 22 793 5 0 0 0 - - -;
#X msg 22 817 gain \$1;
#N canvas 2 93 450 300 known_issues 0;
#X text 31 50 - Audio can turn off when there is a song change or an
unusual signal \, in case just restart the patch;
#X text 35 25 KNOWN ISSUES;
#X text 30 93 - Levels are still of different between the algorithms
;
#X restore 16 947 pd known_issues;
#X obj 1371 504 *~ 0.5;
#X obj 1438 502 *~ 0.5;
#X floatatom 282 72 10 0 0 0 - - -;
#X obj 285 36 hsl 200 30 50 22000 1 0 empty empty Frequency_Band_2
30 -10 1 15 -159808 -1 -1 4900 1;
#X text 262 15 50 Hz;
#X text 466 18 20kHz;
#X msg 283 93 frequency \$1;
#X obj 998 731 rtap_distortion9000~;
#X obj 1017 696 r~ sig;
#X obj 1174 732 rtap_distortion9000~;
#X obj 1201 698 r~ sig;
#X obj 1343 732 rtap_distortion9000~;
#X obj 1373 697 r~ sig;
#X obj 1518 731 rtap_distortion9000~;
#X obj 1548 696 r~ sig;
#X obj 980 674 r f1;
#X obj 804 676 r f0;
#X obj 837 676 r sat0;
#X obj 881 676 r mod0;
#X obj 928 676 r mix0;
#X obj 810 697 r q0;
#X obj 946 697 r g0;
#X obj 29 114 s f0;
#X obj 685 251 s sat0;
#X obj 22 845 s g0;
#X obj 23 703 s q0;
#X obj 28 566 s mix0;
#X obj 1313 425 s mod0;
#X obj 51 381 r mod0;
#X obj 50 448 s mod0;
#X obj 284 114 s f1;
#X floatatom 539 73 10 0 0 0 - - -;
#X obj 542 37 hsl 200 30 50 22000 1 0 empty empty Frequency_Band_3
30 -10 1 15 -159808 -1 -1 6000 1;
#X text 519 16 50 Hz;
#X text 723 19 20kHz;
#X msg 540 94 frequency \$1;
#X floatatom 791 73 10 0 0 0 - - -;
#X obj 794 37 hsl 200 30 50 22000 1 0 empty empty Frequency_Band_4
30 -10 1 15 -159808 -1 -1 300 1;
#X text 771 16 50 Hz;
#X text 975 19 20kHz;
#X msg 792 94 frequency \$1;
#X floatatom 1044 75 10 0 0 0 - - -;
#X obj 1047 39 hsl 200 30 50 22000 1 0 empty empty Frequency_Band_5
30 -10 1 15 -159808 -1 -1 7000 1;
#X text 1024 18 50 Hz;
#X text 1228 21 20kHz;
#X msg 1045 96 frequency \$1;
#X msg 188 421 distortionMod \$1;
#X floatatom 189 400 3 0 0 0 - - -;
#X obj 189 186 vradio 30 1 0 6 empty empty empty -40 -10 1 15 -257985
-159808 -1 2;
#X obj 189 378 r mod0;
#X text 62 129 comment;
#X obj 188 445 s mod1;
#X msg 319 420 distortionMod \$1;
#X floatatom 320 399 3 0 0 0 - - -;
#X obj 320 185 vradio 30 1 0 6 empty empty empty -40 -10 1 15 -257985
-159808 -1 2;
#X obj 320 377 r mod0;
#X msg 447 419 distortionMod \$1;
#X floatatom 448 398 3 0 0 0 - - -;
#X obj 448 184 vradio 30 1 0 6 empty empty empty -40 -10 1 15 -257985
-159808 -1 2;
#X obj 448 376 r mod0;
#X msg 583 418 distortionMod \$1;
#X floatatom 584 397 3 0 0 0 - - -;
#X obj 584 183 vradio 30 1 0 6 empty empty empty -40 -10 1 15 -257985
-159808 -1 0;
#X obj 584 375 r mod0;
#X obj 1362 425 + 6;
#X obj 1362 176 vradio 30 1 0 8 empty empty empty -40 -10 1 15 -66577
-258113 -1 4;
#X obj 1388 425 s mod1;
#X obj 1439 424 + 6;
#X obj 1439 175 vradio 30 1 0 8 empty empty empty -40 -10 1 15 -66577
-258113 -1 1;
#X obj 1514 423 + 6;
#X obj 1514 174 vradio 30 1 0 8 empty empty empty -40 -10 1 15 -66577
-258113 -1 3;
#X obj 1591 423 + 6;
#X obj 1591 174 vradio 30 1 0 8 empty empty empty -40 -10 1 15 -66577
-258113 -1 2;
#X obj 319 444 s mod2;
#X obj 447 443 s mod3;
#X obj 583 442 s mod4;
#X obj 541 115 s f2;
#X obj 794 115 s f3;
#X obj 1046 117 s f4;
#X obj 1465 424 s mod2;
#X obj 1540 423 s mod3;
#X obj 1617 423 s mod4;
#X floatatom 187 521 5 0 0 0 - - -;
#X obj 190 495 hsl 150 20 0 1 0 1 empty empty Mix_Band_2 0 -10 1 15
-4034 -1 -1 6600 1;
#X msg 187 543 mix \$1;
#X floatatom 345 521 5 0 0 0 - - -;
#X obj 348 495 hsl 150 20 0 1 0 1 empty empty Mix_Band_3 0 -10 1 15
-4034 -1 -1 14900 1;
#X msg 345 543 mix \$1;
#X floatatom 503 521 5 0 0 0 - - -;
#X obj 506 495 hsl 150 20 0 1 0 1 empty empty Mix_Band_4 0 -10 1 15
-4034 -1 -1 14900 1;
#X msg 503 543 mix \$1;
#X floatatom 661 521 5 0 0 0 - - -;
#X obj 664 495 hsl 150 20 0 1 0 1 empty empty Mix_Band_5 0 -10 1 15
-4034 -1 -1 14500 1;
#X msg 661 543 mix \$1;
#X text 2 475 Wet;
#X text 157 475 Dry;
#X obj 187 566 s mix1;
#X obj 345 566 s mix2;
#X obj 503 566 s mix3;
#X obj 661 566 s mix5;
#X floatatom 686 276 5 0 0 0 - - -;
#X obj 795 251 hsl 150 25 1 10 0 1 empty empty Saturation_Band_2 -2
-10 1 15 -4032 -1 -1 5900 1;
#X msg 686 298 saturation \$1;
#X floatatom 685 345 5 0 0 0 - - -;
#X obj 794 320 hsl 150 25 1 10 0 1 empty empty SaturationBand_3 -2
-10 1 15 -4032 -1 -1 5900 1;
#X msg 685 367 saturation \$1;
#X floatatom 956 204 5 0 0 0 - - -;
#X obj 1069 179 hsl 150 25 1 10 0 1 empty empty Saturation_Band_4 -2
-10 1 15 -4032 -1 -1 5900 1;
#X msg 956 226 saturation \$1;
#X floatatom 957 276 5 0 0 0 - - -;
#X obj 1066 251 hsl 150 25 1 10 0 1 empty empty Saturation_Band_5 -2
-10 1 15 -4032 -1 -1 5900 1;
#X msg 957 298 saturation \$1;
#X obj 685 322 s sat1;
#X obj 684 391 s sat2;
#X obj 956 251 s sat3;
#X obj 956 322 s sat4;
#X obj 187 620 hsl 150 25 0.1 16 0 0 empty empty Q_Band_2 -2 -10 1
15 -261234 -1 -1 0 1;
#X floatatom 184 651 5 0 0 0 - - -;
#X msg 184 675 quality \$1;
#X obj 184 703 s q1;
#X obj 347 620 hsl 150 25 0.1 16 0 0 empty empty Q_Band_3 -2 -10 1
15 -261234 -1 -1 0 1;
#X floatatom 344 651 5 0 0 0 - - -;
#X msg 344 675 quality \$1;
#X obj 504 620 hsl 150 25 0.1 16 0 0 empty empty Q_Band_4 -2 -10 1
15 -261234 -1 -1 0 1;
#X floatatom 501 651 5 0 0 0 - - -;
#X msg 501 675 quality \$1;
#X obj 662 619 hsl 150 25 0.1 16 0 0 empty empty Q_Band_5 -2 -10 1
15 -261234 -1 -1 0 1;
#X floatatom 659 650 5 0 0 0 - - -;
#X msg 659 674 quality \$1;
#X obj 344 703 s q2;
#X obj 501 703 s q3;
#X obj 659 702 s q4;
#X obj 186 760 hsl 150 25 0 40 0 0 empty empty Gain_Band_2 -2 -10 1
15 -260097 -1 -1 6300 1;
#X floatatom 183 792 5 0 0 0 - - -;
#X msg 183 816 gain \$1;
#X obj 345 759 hsl 150 25 0 40 0 0 empty empty Gain_Band_3 -2 -10 1
15 -260097 -1 -1 7200 1;
#X floatatom 342 791 5 0 0 0 - - -;
#X msg 342 815 gain \$1;
#X obj 503 758 hsl 150 25 0 40 0 0 empty empty Gain_Band_4 -2 -10 1
15 -260097 -1 -1 5100 1;
#X floatatom 500 790 5 0 0 0 - - -;
#X msg 500 814 gain \$1;
#X obj 661 758 hsl 150 25 0 40 0 0 empty empty Gain_Band_5 -2 -10 1
15 -260097 -1 -1 8700 1;
#X floatatom 658 790 5 0 0 0 - - -;
#X msg 658 814 gain \$1;
#X obj 183 844 s g1;
#X obj 342 843 s g2;
#X obj 500 842 s g3;
#X obj 658 842 s g4;
#X obj 1013 674 r sat1;
#X obj 1061 674 r mod1;
#X obj 1110 676 r mix1;
#X obj 1167 677 r f2;
#X obj 1199 678 r sat2;
#X obj 986 697 r q1;
#X obj 1122 697 r g1;
#X obj 1247 677 r mod2;
#X obj 1293 677 r mix2;
#X obj 1301 699 r g2;
#X obj 1169 699 r q2;
#X obj 1342 678 r f3;
#X obj 1374 677 r sat3;
#X obj 1420 678 r mod3;
#X obj 1465 678 r mix3;
#X obj 1478 698 r g3;
#X obj 1342 698 r q3;
#X obj 1513 675 r f4;
#X obj 1546 676 r sat4;
#X obj 1591 677 r mod4;
#X obj 1636 676 r mix4;
#X obj 1515 697 r q4;
#X obj 1649 697 r g4;
#X obj 818 754 *~ 0.2;
#X obj 999 759 *~ 0.2;
#X obj 1175 762 *~ 0.2;
#X obj 1343 760 *~ 0.2;
#X obj 1518 758 *~ 0.2;
#X text 1371 461 Input Signals;
#X obj 890 697 r fmode0;
#X obj 1066 697 r fmode1;
#X obj 1247 700 r fmode2;
#X obj 1422 698 r fmode3;
#X obj 1592 695 r fmode4;
#X connect 1 0 28 0;
#X connect 4 0 1 0;
#X connect 5 0 88 0;
#X connect 6 0 3 0;
#X connect 7 0 8 0;
#X connect 8 0 12 0;
#X connect 9 0 51 0;
#X connect 10 0 9 0;
#X connect 11 0 9 0;
#X connect 12 0 9 0;
#X connect 13 0 59 0;
#X connect 14 0 19 0;
#X connect 15 0 14 0;
#X connect 16 0 6 0;
#X connect 17 0 86 0;
#X connect 18 0 5 0;
#X connect 19 0 82 0;
#X connect 21 0 50 0;
#X connect 22 0 21 0;
#X connect 23 0 24 0;
#X connect 24 0 26 0;
#X connect 25 0 60 0;
#X connect 26 0 84 0;
#X connect 27 0 230 0;
#X connect 28 0 85 0;
#X connect 29 0 18 0;
#X connect 30 0 17 0;
#X connect 50 0 81 0;
#X connect 52 0 27 0;
#X connect 54 0 3 0;
#X connect 55 0 56 0;
#X connect 56 0 57 0;
#X connect 57 0 83 0;
#X connect 61 0 65 0;
#X connect 62 0 61 0;
#X connect 65 0 89 0;
#X connect 66 0 231 0;
#X connect 67 0 66 0;
#X connect 68 0 232 0;
#X connect 69 0 68 0;
#X connect 70 0 233 0;
#X connect 71 0 70 0;
#X connect 72 0 234 0;
#X connect 73 0 72 0;
#X connect 74 0 66 0;
#X connect 75 0 27 0;
#X connect 76 0 27 0;
#X connect 77 0 27 0;
#X connect 78 0 27 0;
#X connect 79 0 27 0;
#X connect 80 0 27 0;
#X connect 87 0 18 0;
#X connect 90 0 94 0;
#X connect 91 0 90 0;
#X connect 94 0 135 0;
#X connect 95 0 99 0;
#X connect 96 0 95 0;
#X connect 99 0 136 0;
#X connect 100 0 104 0;
#X connect 101 0 100 0;
#X connect 104 0 137 0;
#X connect 105 0 110 0;
#X connect 106 0 105 0;
#X connect 107 0 106 0;
#X connect 108 0 106 0;
#X connect 111 0 132 0;
#X connect 112 0 111 0;
#X connect 113 0 112 0;
#X connect 114 0 112 0;
#X connect 115 0 133 0;
#X connect 116 0 115 0;
#X connect 117 0 116 0;
#X connect 118 0 116 0;
#X connect 119 0 134 0;
#X connect 120 0 119 0;
#X connect 121 0 120 0;
#X connect 122 0 120 0;
#X connect 123 0 125 0;
#X connect 124 0 123 0;
#X connect 126 0 138 0;
#X connect 127 0 126 0;
#X connect 128 0 139 0;
#X connect 129 0 128 0;
#X connect 130 0 140 0;
#X connect 131 0 130 0;
#X connect 141 0 143 0;
#X connect 142 0 141 0;
#X connect 143 0 155 0;
#X connect 144 0 146 0;
#X connect 145 0 144 0;
#X connect 146 0 156 0;
#X connect 147 0 149 0;
#X connect 148 0 147 0;
#X connect 149 0 157 0;
#X connect 150 0 152 0;
#X connect 151 0 150 0;
#X connect 152 0 158 0;
#X connect 159 0 161 0;
#X connect 160 0 159 0;
#X connect 161 0 171 0;
#X connect 162 0 164 0;
#X connect 163 0 162 0;
#X connect 164 0 172 0;
#X connect 165 0 167 0;
#X connect 166 0 165 0;
#X connect 167 0 173 0;
#X connect 168 0 170 0;
#X connect 169 0 168 0;
#X connect 170 0 174 0;
#X connect 175 0 176 0;
#X connect 176 0 177 0;
#X connect 177 0 178 0;
#X connect 179 0 180 0;
#X connect 180 0 181 0;
#X connect 181 0 188 0;
#X connect 182 0 183 0;
#X connect 183 0 184 0;
#X connect 184 0 189 0;
#X connect 185 0 186 0;
#X connect 186 0 187 0;
#X connect 187 0 190 0;
#X connect 191 0 192 0;
#X connect 192 0 193 0;
#X connect 193 0 203 0;
#X connect 194 0 195 0;
#X connect 195 0 196 0;
#X connect 196 0 204 0;
#X connect 197 0 198 0;
#X connect 198 0 199 0;
#X connect 199 0 205 0;
#X connect 200 0 201 0;
#X connect 201 0 202 0;
#X connect 202 0 206 0;
#X connect 207 0 66 0;
#X connect 208 0 66 0;
#X connect 209 0 66 0;
#X connect 210 0 68 0;
#X connect 211 0 68 0;
#X connect 212 0 66 0;
#X connect 213 0 66 0;
#X connect 214 0 68 0;
#X connect 215 0 68 0;
#X connect 216 0 68 0;
#X connect 217 0 68 0;
#X connect 218 0 70 0;
#X connect 219 0 70 0;
#X connect 220 0 70 0;
#X connect 221 0 70 0;
#X connect 222 0 70 0;
#X connect 223 0 70 0;
#X connect 224 0 72 0;
#X connect 225 0 72 0;
#X connect 226 0 72 0;
#X connect 227 0 72 0;
#X connect 228 0 72 0;
#X connect 229 0 72 0;
#X connect 230 0 0 1;
#X connect 230 0 0 0;
#X connect 230 0 53 0;
#X connect 231 0 0 1;
#X connect 231 0 0 0;
#X connect 231 0 53 0;
#X connect 232 0 0 1;
#X connect 232 0 0 0;
#X connect 232 0 53 0;
#X connect 233 0 0 1;
#X connect 233 0 0 0;
#X connect 233 0 53 0;
#X connect 234 0 0 0;
#X connect 234 0 0 1;
#X connect 234 0 53 0;
#X connect 236 0 27 0;
#X connect 237 0 66 0;
#X connect 238 0 68 0;
#X connect 239 0 70 0;
#X connect 240 0 72 0;
