#N canvas 323 263 1456 938 12;
#X obj 485 592 dac~;
#X floatatom 434 739 5 0 0 0 - - -;
#N canvas 0 50 450 250 (subpatch) 0;
#X array waveform 100 float 5;
#A 0 -0.252686 -0.267517 -0.28006 -0.283264 -0.278168 -0.270599 -0.264404
-0.254547 -0.236694 -0.215271 -0.198761 -0.190521 -0.183441 -0.176544
-0.170715 -0.17334 -0.182922 -0.193756 -0.202148 -0.21347 -0.226807
-0.233704 -0.229553 -0.220215 -0.213379 -0.205933 -0.194916 -0.176605
-0.161743 -0.155182 -0.154144 -0.148712 -0.139374 -0.131958 -0.128632
-0.129089 -0.128113 -0.124146 -0.118866 -0.116821 -0.115021 -0.109253
-0.102264 -0.0971985 -0.0927124 -0.0865784 -0.081665 -0.0780945 -0.0707703
-0.0615234 -0.0553894 -0.0489502 -0.0369873 -0.0272217 -0.0251465 -0.0258789
-0.0284424 -0.0393982 -0.0595093 -0.0857239 -0.115143 -0.147247 -0.177979
-0.209137 -0.245697 -0.283173 -0.312836 -0.335388 -0.356812 -0.370728
-0.371796 -0.36618 -0.365753 -0.36264 -0.351959 -0.337158 -0.324097
-0.312408 -0.305115 -0.302216 -0.292755 -0.27713 -0.263641 -0.252502
-0.234436 -0.211487 -0.192719 -0.176941 -0.155884 -0.130493 -0.1073
-0.0841675 -0.0594177 -0.0362549 -0.013855 0.0141907 0.040802 0.0588684
0.0744324 0.0955505;
#X coords 0 1 99 -1 400 200 1 0 0;
#X restore 869 642 graph;
#X obj 872 604 tabwrite~ waveform;
#X obj 437 697 hsl 200 30 0 1 0 1 empty empty Mix 0 -10 1 15 -4034
-1 -1 19900 1;
#X msg 301 519 distortionMod \$1;
#X obj 874 565 metro 100;
#X obj 1074 311 bng 15 250 50 0 empty empty empty 17 7 0 10 -262144
-1 -1;
#X obj 1073 332 openpanel;
#X obj 1074 416 readsf~;
#X msg 1083 372 start;
#X msg 1086 393 stop;
#X msg 1074 352 open \$1;
#X obj 924 302 osc~ 440;
#X floatatom 353 400 5 0 0 0 - - -;
#X obj 356 361 hsl 200 30 1 10 0 1 empty empty Saturation_(1-3-4) -2
-10 1 15 -4032 -1 -1 12200 1;
#X obj 875 540 tgl 15 0 empty empty empty 17 7 0 10 -262144 -1 -1 1
1;
#X obj 165 851 + 6;
#X floatatom 302 498 3 0 0 0 - - -;
#X msg 353 422 saturation \$1;
#X obj 869 258 adc~;
#X floatatom 352 265 10 0 0 0 - - -;
#X obj 355 224 hsl 200 30 50 22000 1 0 empty empty Frequency 30 -10
1 15 -159808 -1 -1 7900 1;
#X obj 633 220 hsl 200 30 0.1 16 0 0 empty empty Quality -2 -10 1 15
-261234 -1 -1 0 1;
#X floatatom 632 259 5 0 0 0 - - -;
#X obj 946 345 phasor~ 440;
#X msg 633 283 quality \$1;
#X obj 484 569 rtap_distortion9000~;
#X msg 432 761 mix \$1;
#X obj 163 249 vradio 40 1 0 6 empty empty SOFT_CLIP_WAVESHAPER -40
-10 1 15 -257985 -159808 -1 3;
#X obj 163 524 vradio 40 1 0 8 empty empty EXOTIC_DISTORTION -40 -10
1 15 -66577 -258113 -1 0;
#X text 131 577 ATSR;
#X text 124 539 FEXP2;
#X text 124 460 FEXP1;
#X text 131 420 ATAN;
#X text 131 380 TANH;
#X text 131 340 SIG2;
#X text 138 301 SIG;
#X text 138 616 SQS;
#X text 132 656 CUBE;
#X text 138 697 HWR;
#X text 138 733 FWR;
#X text 138 775 SQR;
#X text 125 815 ASQRT;
#X text 131 259 ARRY;
#X text 924 282 Test Signals;
#X text 874 515 Here you can activate the waveform, f 37;
#X text 1061 276 Here you can load a WAVE File;
#X text 643 703 ORIGINAL;
#X text 368 703 DISTORTED;
#X text 204 301 (SAT);
#X text 202 381 (SAT);
#X text 203 420 (SAT);
#X text 332 203 50 Hz;
#X text 536 206 20kHz;
#X obj 354 308 s f;
#X msg 353 286 frequency \$1;
#X obj 485 519 r f;
#X obj 633 311 s q;
#X obj 485 539 r q;
#X obj 919 444 s~ sig;
#X obj 514 539 r~ sig;
#X obj 521 592 s~ spec;
#X obj 879 584 r~ spec;
#X obj 352 446 s sat;
#X obj 512 519 r sat;
#X text 209 537 CAREFUL!;
#X obj 301 543 s mod;
#X obj 554 519 r mod;
#X obj 302 476 r mod;
#X obj 563 540 r fmode;
#X obj 203 853 s mod;
#X obj 432 784 s mix;
#X obj 595 520 r mix;
#X obj 634 358 hsl 200 30 0 40 0 0 empty empty Gain -2 -10 1 15 -260097
-1 -1 5100 1;
#X floatatom 633 396 5 0 0 0 - - -;
#X msg 634 420 gain \$1;
#X obj 634 448 s g;
#X obj 619 540 r g;
#X text 866 234 Here you can listen to external audio;
#X text 209 693 just for low Qs;
#X text 209 657 just for low Qs;
#X text 357 861 If you are happy check out the multiband patch!;
#N canvas 0 23 450 300 known_issues 0;
#X text 31 50 - Audio can turn off when there is a song change or an
unusual signal \, in case just restart the patch;
#X text 35 25 KNOWN ISSUES;
#X text 30 93 - Levels are still of different between the algorithms
;
#X restore 1151 877 pd known_issues;
#X text 34 79 1 Select one Distortion Algorithm at the left side;
#X text 34 103 2 Change the Bandpass Filter with the f \, q and gain
values;
#X text 44 48 WELCOME TO POWER DISTORTION!;
#X text 36 128 3 If your Algorithm has Saturation modify it 4 Mix ist
with the original signal at the mix;
#X text 1000 91 1 Just test the Algorithm with a simple waveform at
test signal;
#X text 999 159 3 Load a 44.1 kHz WAVE File at the openpanel switch
;
#X text 999 43 AUDIO INPUTS;
#X text 999 123 2 use your microphone or audio input with soundflower
at the adc unit;
#X text 1001 66 CONNECT THE DESIRED SOURCE TO THE S~ SIG;
#X obj 927 324 *~ 0.5;
#X obj 950 366 *~ 0.5;
#X text 385 331 Only for SIG \, TANH and ATAN!;
#X text 1063 262 !!! TEST IT WITH MUSIC !!!;
#X text 212 814 SUPER FUZZY!!!;
#X connect 1 0 28 0;
#X connect 4 0 1 0;
#X connect 5 0 67 0;
#X connect 6 0 3 0;
#X connect 7 0 8 0;
#X connect 8 0 12 0;
#X connect 9 0 60 0;
#X connect 10 0 9 0;
#X connect 11 0 9 0;
#X connect 12 0 9 0;
#X connect 13 0 93 0;
#X connect 14 0 19 0;
#X connect 15 0 14 0;
#X connect 16 0 6 0;
#X connect 17 0 71 0;
#X connect 18 0 5 0;
#X connect 19 0 64 0;
#X connect 20 0 60 0;
#X connect 21 0 56 0;
#X connect 22 0 21 0;
#X connect 23 0 24 0;
#X connect 24 0 26 0;
#X connect 25 0 94 0;
#X connect 26 0 58 0;
#X connect 27 0 62 0;
#X connect 27 0 0 0;
#X connect 27 0 0 1;
#X connect 28 0 72 0;
#X connect 29 0 18 0;
#X connect 30 0 17 0;
#X connect 56 0 55 0;
#X connect 57 0 27 0;
#X connect 59 0 27 0;
#X connect 61 0 27 0;
#X connect 63 0 3 0;
#X connect 65 0 27 0;
#X connect 68 0 27 0;
#X connect 69 0 18 0;
#X connect 70 0 27 0;
#X connect 73 0 27 0;
#X connect 74 0 75 0;
#X connect 75 0 76 0;
#X connect 76 0 77 0;
#X connect 78 0 27 0;
