#N canvas 0 23 1440 789 12;
#X obj 596 505 rtap_distortion9000~;
#X obj 595 770 dac~;
#X floatatom 786 354 5 0 0 0 - - -;
#N canvas 0 50 450 250 (subpatch) 0;
#X array waveform 100 float 5;
#A 0 0 0 0 0 0 0 0 0 0 0 0 0 0 0 0 0 0 0 0 0 0 0 0 0 0 0 0 0 0 0 0
0 0 0 0 0 0 0 0 0 0 0 0 0 0 0 0 0 0 0 0 0 0 0 0 0 0 0 0 0 0 0 0 0 0
0 0 0 0 0 0 0 0 0 0 0 0 0 0 0 0 0 0 0 0 0 0 0 0 0 0 0 0 0 0 0 0 0 0
0;
#X coords 0 5 100 -5 200 140 1 0 0;
#X restore 1126 56 graph;
#X obj 1172 696 tabwrite~ waveform;
#X obj 1200 213 bng 15 250 50 0 empty empty empty 17 7 0 10 -262144
-1 -1;
#X msg 776 389 drywet \$1;
#X obj 787 327 hsl 128 15 0.01 1 1 1 empty empty Dry/Wet -2 -8 0 10
-262144 -1 -1 0 1;
#X msg 243 444 distortionMod \$1;
#X msg 238 48 1;
#X msg 238 77 2;
#X obj 1190 252 metro 100;
#X obj 588 126 bng 15 250 50 0 empty empty empty 17 7 0 10 -262144
-1 -1;
#X obj 585 177 openpanel;
#X obj 590 275 readsf~;
#X msg 490 175 start;
#X msg 485 222 stop;
#X msg 632 226 open \$1;
#X obj 647 341 osc~ 440;
#X msg 238 104 3;
#X msg 239 129 4;
#X msg 239 153 5;
#X msg 241 177 6;
#X msg 240 200 7;
#X msg 241 220 8;
#X msg 241 242 9;
#X msg 243 263 10;
#X msg 242 286 11;
#X msg 242 308 12;
#X msg 242 331 13;
#X msg 243 354 14;
#X msg 244 378 15;
#X msg 243 400 16;
#X obj 597 626 *~ 0.5;
#X connect 0 0 4 0;
#X connect 0 0 33 0;
#X connect 2 0 6 0;
#X connect 5 0 11 0;
#X connect 6 0 0 0;
#X connect 7 0 2 0;
#X connect 8 0 0 0;
#X connect 9 0 8 0;
#X connect 10 0 8 0;
#X connect 11 0 4 0;
#X connect 12 0 13 0;
#X connect 13 0 17 0;
#X connect 14 0 0 0;
#X connect 15 0 14 0;
#X connect 16 0 14 0;
#X connect 17 0 14 0;
#X connect 19 0 8 0;
#X connect 20 0 8 0;
#X connect 21 0 8 0;
#X connect 22 0 8 0;
#X connect 23 0 8 0;
#X connect 24 0 8 0;
#X connect 25 0 8 0;
#X connect 26 0 8 0;
#X connect 27 0 8 0;
#X connect 28 0 8 0;
#X connect 29 0 8 0;
#X connect 31 0 8 0;
#X connect 32 0 8 0;
#X connect 33 0 1 0;
#X connect 33 0 1 1;
