#N canvas 431 228 760 740 12;
#N canvas 2 170 450 408 BandPass 1;
#X obj 116 243 sig~;
#X obj 104 342 vcf~;
#X obj 178 337 vcf~;
#X floatatom 116 211 5 0 0 0 - - -;
#X obj 232 159 hsl 128 15 0 5000 0 0 empty empty empty -2 -8 0 10 -262144
-1 -1 3000 1;
#X floatatom 204 243 5 0 0 0 - - -;
#X obj 94 36 inlet~;
#X obj 175 35 inlet~;
#X obj 92 393 outlet~;
#X obj 199 399 outlet~;
#X obj 106 117 *~ 0.9;
#X obj 180 118 *~ 0.9;
#X obj 299 188 hsl 128 15 0.03 3 0 1 empty empty empty -2 -8 0 10 -262144
-1 -1 1900 1;
#X connect 0 0 1 1;
#X connect 0 0 2 1;
#X connect 1 0 8 0;
#X connect 2 0 9 0;
#X connect 3 0 0 0;
#X connect 4 0 3 0;
#X connect 5 0 1 2;
#X connect 5 0 2 2;
#X connect 6 0 10 0;
#X connect 7 0 11 0;
#X connect 10 0 1 0;
#X connect 11 0 2 0;
#X connect 12 0 5 0;
#X restore 23 277 pd BandPass;
#X obj 236 675 dac~;
#X msg 236 360 makeuplevel \$1;
#X floatatom 248 271 5 0 0 0 - - -;
#X floatatom 179 266 5 0 0 0 - - -;
#X msg 99 362 clippinglevel \$1;
#X obj 72 60 openpanel;
#X msg 77 120 open \$1;
#X obj 82 162 readsf~;
#X obj 64 3 bng 15 250 50 0 empty empty empty 17 7 0 10 -262144 -1
-1;
#X msg 14 187 1;
#N canvas 1076 249 450 454 BandPass 1;
#X obj 116 243 sig~;
#X obj 104 342 vcf~;
#X obj 178 337 vcf~;
#X floatatom 116 211 5 0 0 0 - - -;
#X obj 232 159 hsl 128 15 0 5000 0 0 empty empty empty -2 -8 0 10 -262144
-1 -1 2000 1;
#X floatatom 204 243 5 0 0 0 - - -;
#X obj 94 36 inlet~;
#X obj 175 35 inlet~;
#X obj 92 393 outlet~;
#X obj 199 399 outlet~;
#X obj 106 117 *~ 0.9;
#X obj 180 118 *~ 0.9;
#X obj 299 188 hsl 128 15 0.03 3 0 1 empty empty empty -2 -8 0 10 -262144
-1 -1 10100 1;
#X connect 0 0 1 1;
#X connect 0 0 2 1;
#X connect 1 0 8 0;
#X connect 2 0 9 0;
#X connect 3 0 0 0;
#X connect 4 0 3 0;
#X connect 5 0 1 2;
#X connect 5 0 2 2;
#X connect 6 0 10 0;
#X connect 7 0 11 0;
#X connect 10 0 1 0;
#X connect 11 0 2 0;
#X connect 12 0 5 0;
#X restore 329 267 pd BandPass;
#X msg 614 336 makeuplevel \$1;
#X floatatom 619 275 5 0 0 0 - - -;
#X floatatom 450 253 5 0 0 0 - - -;
#X msg 452 330 clippinglevel \$1;
#X obj 85 442 power_distortion_9000~;
#X obj 367 442 power_distortion_9000~;
#X connect 0 0 16 0;
#X connect 2 0 16 0;
#X connect 3 0 2 0;
#X connect 4 0 5 0;
#X connect 5 0 16 0;
#X connect 6 0 7 0;
#X connect 7 0 8 0;
#X connect 8 0 0 0;
#X connect 8 0 11 0;
#X connect 9 0 6 0;
#X connect 10 0 8 0;
#X connect 11 0 17 0;
#X connect 12 0 17 0;
#X connect 13 0 12 0;
#X connect 14 0 15 0;
#X connect 15 0 17 0;
#X connect 16 0 1 0;
#X connect 17 0 1 1;
