#N canvas 1414 -285 1587 860 12;
#X obj 485 592 dac~;
#X floatatom 434 739 5 0 0 0 - - -;
#N canvas 0 50 450 250 (subpatch) 0;
#X array waveform 100 float 5;
#A 0 0 0 0 0 0 0 0 0 0 0 0 0 0 0 0 0 0 0 0 0 0 0 0 0 0 0 0 0 0 0 0
0 0 0 0 0 0 0 0 0 0 0 0 0 0 0 0 0 0 0 0 0 0 0 0 0 0 0 0 0 0 0 0 0 0
0 0 0 0 0 0 0 0 0 0 0 0 0 0 0 0 0 0 0 0 0 0 0 0 0 0 0 0 0 0 0 0 0 0
0;
#X coords 0 1 99 -1 400 200 1 0 0;
#X restore 869 642 graph;
#X obj 437 697 hsl 200 30 0 1 0 1 empty empty Mix 0 -10 1 15 -4034
-1 -1 19900 1;
#X msg 301 519 distortionMod \$1;
#X floatatom 353 400 5 0 0 0 - - -;
#X obj 356 361 hsl 200 30 1 10 0 1 empty empty Saturation_(1-3-4) -2
-10 1 15 -4032 -1 -1 12200 1;
#X obj 875 540 tgl 15 0 empty empty empty 17 7 0 10 -262144 -1 -1 1
1;
#X obj 165 851 + 6;
#X floatatom 302 498 3 0 0 0 - - -;
#X msg 353 422 saturation \$1;
#X floatatom 352 265 10 0 0 0 - - -;
#X obj 355 224 hsl 200 30 50 22000 1 0 empty empty Frequency 30 -10
1 15 -159808 -1 -1 0 1;
#X obj 633 220 hsl 200 30 0.1 16 0 0 empty empty Quality -2 -10 1 15
-261234 -1 -1 0 1;
#X floatatom 632 259 5 0 0 0 - - -;
#X msg 633 283 quality \$1;
#X obj 484 569 rtap_distortion9000~;
#X msg 432 761 mix \$1;
#X obj 163 249 vradio 40 1 0 6 empty empty SOFT_CLIP_WAVESHAPER -40
-10 1 15 -257985 -159808 -1 3;
#X obj 163 524 vradio 40 1 0 8 empty empty EXOTIC_DISTORTION -40 -10
1 15 -66577 -258113 -1 0;
#X text 131 577 ATSR;
#X text 124 539 FEXP2;
#X text 124 460 FEXP1;
#X text 131 420 ATAN;
#X text 131 380 TANH;
#X text 131 340 SIG2;
#X text 138 301 SIG;
#X text 138 616 SQS;
#X text 132 656 CUBE;
#X text 138 697 HWR;
#X text 138 733 FWR;
#X text 138 775 SQR;
#X text 125 815 ASQRT;
#X text 131 259 ARRY;
#X text 874 515 Here you can activate the waveform, f 37;
#X text 1332 290 Here you can load a WAVE File;
#X text 643 703 ORIGINAL;
#X text 368 703 DISTORTED;
#X text 204 301 (SAT);
#X text 202 381 (SAT);
#X text 203 420 (SAT);
#X text 332 203 50 Hz;
#X text 536 206 20kHz;
#X obj 354 308 s f;
#X msg 353 286 frequency \$1;
#X obj 485 519 r f;
#X obj 633 311 s q;
#X obj 485 539 r q;
#X obj 514 539 r~ sig;
#X obj 521 592 s~ spec;
#X obj 352 446 s sat;
#X obj 512 519 r sat;
#X text 209 537 CAREFUL!;
#X obj 301 543 s mod;
#X obj 554 519 r mod;
#X obj 302 476 r mod;
#X obj 563 540 r fmode;
#X obj 203 853 s mod;
#X obj 432 784 s mix;
#X obj 595 520 r mix;
#X obj 634 358 hsl 200 30 0 40 0 0 empty empty Gain -2 -10 1 15 -260097
-1 -1 0 1;
#X floatatom 633 396 5 0 0 0 - - -;
#X msg 634 420 gain \$1;
#X obj 634 448 s g;
#X obj 619 540 r g;
#X text 853 290 Here you can listen to external audio;
#X text 209 693 just for low Qs;
#X text 209 657 just for low Qs;
#X text 357 861 If you are happy check out the multiband patch!;
#N canvas 0 23 450 300 known_issues 0;
#X text 31 50 - Audio can turn off when there is a song change or an
unusual signal \, in case just restart the patch;
#X text 35 25 KNOWN ISSUES;
#X text 30 93 - Levels are still of different between the algorithms
;
#X restore 1151 877 pd known_issues;
#X text 226 63 WELCOME TO POWER DISTORTION!;
#X text 993 190 3 Load a 44.1 kHz WAVE File at the openpanel switch
;
#X text 993 74 AUDIO INPUTS;
#X text 993 154 2 use your microphone or audio input with soundflower
at the adc unit, f 69;
#X text 385 331 Only for SIG \, TANH and ATAN!;
#X text 1346 267 !!! TEST IT WITH MUSIC !!!;
#X text 212 814 SUPER FUZZY!!!;
#X text 217 94 1 Select a Distortion Algorithm on the left side 2 Adjust
the bandpass filter with f \, q and gain parameters 3 If your algorithm
includes a saturation parameter modify it 4 Mix it with the original
signal using the mix slider, f 63;
#X text 994 122 1 Just test the algorithm with a simple waveform at
test signal, f 64;
#X obj 329 496 + 9;
#X obj 1388 351 bng 15 250 50 0 empty empty empty 17 7 0 10 -262144
-1 -1;
#X msg 1416 351 start;
#X msg 1467 351 stop;
#X obj 1239 427 s~ sig;
#X obj 1152 349 tgl 15 0 empty empty empty 17 7 0 10 -262144 -1 -1
0 1;
#N canvas 1973 -220 450 300 sine 0;
#X obj 84 75 osc~ 440;
#X obj 105 165 *~;
#X obj 106 206 outlet~;
#X floatatom 188 157 5 0 0 0 - - -;
#X obj 262 115 inlet taster;
#X obj 100 121 *~ 0.1;
#X connect 0 0 5 0;
#X connect 1 0 2 0;
#X connect 3 0 1 1;
#X connect 4 0 3 0;
#X connect 5 0 1 0;
#X restore 1152 374 pd sine;
#N canvas 1973 -220 450 300 saw 0;
#X obj 105 165 *~;
#X obj 106 206 outlet~;
#X floatatom 188 157 5 0 0 0 - - -;
#X obj 262 115 inlet taster;
#X obj 83 75 phasor~ 440;
#X obj 100 121 *~ 0.1;
#X connect 0 0 1 0;
#X connect 2 0 0 1;
#X connect 3 0 2 0;
#X connect 4 0 5 0;
#X connect 5 0 0 0;
#X restore 1256 370 pd saw;
#X obj 1256 349 tgl 15 0 empty empty empty 17 7 0 10 -262144 -1 -1
0 1;
#N canvas 0 23 450 300 browse 0;
#X obj 156 95 openpanel;
#X msg 159 126 open \$1;
#X obj 153 216 readsf~;
#X obj 145 60 inlet schalter;
#X obj 254 182 inlet start;
#X obj 255 215 inlet stop;
#X obj 158 260 outlet~;
#X connect 0 0 1 0;
#X connect 1 0 2 0;
#X connect 2 0 6 0;
#X connect 3 0 0 0;
#X connect 4 0 2 0;
#X connect 5 0 2 0;
#X restore 1387 375 pd browse;
#X obj 1153 337 hradio 8 1 0 1 empty empty Sine_440Hz 0 -8 1 15 -262144
-1 -1 6;
#X obj 1254 338 hradio 8 1 0 1 empty empty Saw_440Hz 0 -8 1 15 -262144
-1 -1 6;
#X obj 1388 338 hradio 8 1 0 1 empty empty Browse_sample 0 -8 1 15
-262144 -1 -1 6;
#N canvas 1973 -220 1194 737 mic 0;
#X obj 105 165 *~;
#X obj 106 206 outlet~;
#X floatatom 188 157 5 0 0 0 - - -;
#X obj 262 115 inlet taster;
#X obj 100 121 *~ 0.1;
#X obj 155 69 adc~;
#X connect 0 0 1 0;
#X connect 2 0 0 1;
#X connect 3 0 2 0;
#X connect 4 0 0 0;
#X connect 5 0 4 0;
#X restore 1011 374 pd mic in;
#X obj 1010 350 tgl 15 0 empty empty empty 17 7 0 10 -262144 -1 -1
0 1;
#X obj 991 343 hradio 8 1 0 1 empty empty Mic_In 0 -8 1 15 -262144
-1 -1 6;
#X text 1177 289 test signals;
#N canvas 0 23 358 309 waveform 0;
#X obj 132 173 tabwrite~ waveform;
#X obj 134 134 metro 100;
#X obj 139 153 r~ spec;
#X obj 107 80 inlet schalter;
#X connect 1 0 0 0;
#X connect 2 0 0 0;
#X connect 3 0 1 0;
#X restore 875 564 pd waveform;
#X obj 22 52 tgl 15 0 empty empty empty 17 7 0 10 -262144 -1 -1 1 1
;
#X msg 22 72 \; pd dsp \$1;
#X text 67 49 <-- DSP on/off;
#X text 993 96 Click on a toggle to choose the desired audio source
;
#X connect 1 0 17 0;
#X connect 3 0 1 0;
#X connect 4 0 53 0;
#X connect 5 0 10 0;
#X connect 6 0 5 0;
#X connect 7 0 96 0;
#X connect 8 0 57 0;
#X connect 9 0 79 0;
#X connect 10 0 50 0;
#X connect 11 0 44 0;
#X connect 12 0 11 0;
#X connect 13 0 14 0;
#X connect 14 0 15 0;
#X connect 15 0 46 0;
#X connect 16 0 49 0;
#X connect 16 0 0 0;
#X connect 16 0 0 1;
#X connect 17 0 58 0;
#X connect 18 0 9 0;
#X connect 19 0 8 0;
#X connect 44 0 43 0;
#X connect 45 0 16 0;
#X connect 47 0 16 0;
#X connect 48 0 16 0;
#X connect 51 0 16 0;
#X connect 54 0 16 0;
#X connect 55 0 9 0;
#X connect 56 0 16 0;
#X connect 59 0 16 0;
#X connect 60 0 61 0;
#X connect 61 0 62 0;
#X connect 62 0 63 0;
#X connect 64 0 16 0;
#X connect 79 0 4 0;
#X connect 80 0 88 0;
#X connect 81 0 88 1;
#X connect 82 0 88 2;
#X connect 84 0 85 0;
#X connect 85 0 83 0;
#X connect 86 0 83 0;
#X connect 87 0 86 0;
#X connect 88 0 83 0;
#X connect 92 0 83 0;
#X connect 93 0 92 0;
#X connect 97 0 98 0;
