#N canvas 308 274 1680 986 12;
#X obj 485 605 dac~;
#X floatatom 434 753 5 0 0 0 - - -;
#N canvas 0 50 450 250 (subpatch) 0;
#X array waveform 100 float 5;
#A 0 0 0 0 0 0 0 0 0 0 0 0 0 0 0 0 0 0 0 0 0 0 0 0 0 0 0 0 0 0 0 0
0 0 0 0 0 0 0 0 0 0 0 0 0 0 0 0 0 0 0 0 0 0 0 0 0 0 0 0 0 0 0 0 0 0
0 0 0 0 0 0 0 0 0 0 0 0 0 0 0 0 0 0 0 0 0 0 0 0 0 0 0 0 0 0 0 0 0 0
0;
#X coords 0 1 99 -1 400 200 1 0 0;
#X restore 869 657 graph;
#X obj 437 698 hsl 200 30 0 1 0 1 empty empty Mix 0 -10 1 15 -4034
-1 -1 0 1;
#X msg 302 546 distortionMod \$1;
#X floatatom 352 419 5 0 0 0 - - -;
#X obj 355 364 hsl 200 30 1 10 0 1 empty empty Saturation_(1-3-4) -2
-10 1 15 -4032 -1 -1 10200 1;
#X obj 874 556 tgl 15 0 empty empty empty 17 7 0 10 -262144 -1 -1 0
1;
#X obj 163 885 + 6;
#X floatatom 302 504 3 0 0 0 - - -;
#X msg 352 461 saturation \$1;
#X floatatom 352 279 10 0 0 0 - - -;
#X obj 355 224 hsl 200 30 50 22000 1 0 empty empty Frequency 30 -10
1 15 -159808 -1 -1 0 1;
#X obj 633 224 hsl 200 30 0.1 16 0 0 empty empty Quality -2 -10 1 15
-261234 -1 -1 0 1;
#X floatatom 630 279 5 0 0 0 - - -;
#X msg 630 321 quality \$1;
#X obj 484 578 rtap_distortion9000~;
#X msg 434 795 mix \$1;
#X obj 163 260 vradio 40 1 0 6 empty empty SOFT_CLIP_WAVESHAPER -40
-10 1 15 -257985 -159808 -1 5;
#X obj 163 540 vradio 40 1 0 8 empty empty EXOTIC_DISTORTION -40 -10
1 15 -66577 -258113 -1 0;
#X text 124 579 ATSR;
#X text 124 539 FEXP2;
#X text 131 459 FEXP1;
#X text 131 419 ATAN;
#X text 131 379 TANH;
#X text 131 339 SIG2;
#X text 131 299 SIG;
#X text 124 619 SQS;
#X text 124 659 CUBE;
#X text 124 699 HWR;
#X text 124 739 FWR;
#X text 124 779 SQR;
#X text 124 819 ASQRT;
#X text 131 259 ARRY;
#X text 874 515 Here you can activate the waveform, f 37;
#X text 643 697 ORIGINAL;
#X text 368 697 DISTORTED;
#X text 204 301 (SAT);
#X text 202 380 (SAT);
#X text 202 420 (SAT);
#X text 332 194 50 Hz;
#X text 536 223 20kHz;
#X obj 352 321 s f;
#X msg 353 302 frequency \$1;
#X obj 485 519 r f;
#X obj 633 302 s q;
#X obj 485 562 r q;
#X obj 512 562 r~ sig;
#X obj 512 605 s~ spec;
#X obj 352 504 s sat;
#X obj 512 519 r sat;
#X text 209 539 CAREFUL!;
#X obj 301 540 s mod;
#X obj 554 519 r mod;
#X obj 302 461 r mod;
#X obj 554 562 r fmode;
#X obj 212 856 s mod;
#X obj 432 776 s mix;
#X obj 595 520 r mix;
#X obj 633 364 hsl 200 30 0 40 0 0 empty empty Gain -2 -10 1 15 -260097
-1 -1 0 1;
#X floatatom 630 419 5 0 0 0 - - -;
#X msg 630 461 gain \$1;
#X obj 634 461 s g;
#X obj 619 540 r g;
#X text 853 301 Here you can listen to external audio;
#X text 209 696 just for low Qs;
#X text 209 656 just for low Qs;
#X text 357 850 If you are happy check out the multiband patch!;
#X text 226 51 WELCOME TO POWER DISTORTION!;
#X text 993 191 3 Load a 44.1 kHz WAVE File at the openpanel switch
;
#X text 993 71 AUDIO INPUTS;
#X text 993 151 2 use your microphone or audio input with soundflower
at the adc unit, f 69;
#X text 385 340 Only for SIG \, TANH and ATAN!;
#X text 1346 259 !!! TEST IT WITH MUSIC !!!;
#X text 212 815 SUPER FUZZY!!!;
#X text 226 91 1 Select a Distortion Algorithm on the left side 2 Adjust
the bandpass filter with f \, q and gain parameters 3 If your algorithm
includes a saturation parameter modify it 4 Mix it with the original
signal using the mix slider, f 63;
#X text 994 122 1 Just test the algorithm with a simple waveform at
test signal, f 64;
#X obj 329 498 + 9;
#X obj 1388 361 bng 15 250 50 0 empty empty empty 17 7 0 10 -262144
-1 -1;
#X msg 1416 361 start;
#X msg 1467 361 stop;
#X obj 1239 421 s~ sig;
#X obj 1152 361 tgl 15 0 empty empty empty 17 7 0 10 -262144 -1 -1
0 1;
#N canvas 1973 -220 450 300 sine 0;
#X obj 84 75 osc~ 440;
#X obj 105 165 *~;
#X obj 106 206 outlet~;
#X floatatom 188 157 5 0 0 0 - - -;
#X obj 262 115 inlet taster;
#X obj 100 121 *~ 0.1;
#X connect 0 0 5 0;
#X connect 1 0 2 0;
#X connect 3 0 1 1;
#X connect 4 0 3 0;
#X connect 5 0 1 0;
#X restore 1152 361 pd sine;
#N canvas 1973 -220 450 300 saw 0;
#X obj 105 165 *~;
#X obj 106 206 outlet~;
#X floatatom 188 157 5 0 0 0 - - -;
#X obj 262 115 inlet taster;
#X obj 83 75 phasor~ 440;
#X obj 100 121 *~ 0.1;
#X connect 0 0 1 0;
#X connect 2 0 0 1;
#X connect 3 0 2 0;
#X connect 4 0 5 0;
#X connect 5 0 0 0;
#X restore 1256 361 pd saw;
#X obj 1256 361 tgl 15 0 empty empty empty 17 7 0 10 -262144 -1 -1
0 1;
#N canvas 0 23 450 300 browse 0;
#X obj 156 95 openpanel;
#X msg 159 126 open \$1;
#X obj 153 216 readsf~;
#X obj 145 60 inlet schalter;
#X obj 254 182 inlet start;
#X obj 255 215 inlet stop;
#X obj 158 260 outlet~;
#X connect 0 0 1 0;
#X connect 1 0 2 0;
#X connect 2 0 6 0;
#X connect 3 0 0 0;
#X connect 4 0 2 0;
#X connect 5 0 2 0;
#X restore 1387 361 pd browse;
#X obj 1153 341 hradio 8 1 0 1 empty empty Sine_440Hz 0 -8 1 15 -262144
-1 -1 6;
#X obj 1254 341 hradio 8 1 0 1 empty empty Saw_440Hz 0 -8 1 15 -262144
-1 -1 6;
#X obj 1388 341 hradio 8 1 0 1 empty empty Browse_sample 0 -8 1 15
-262144 -1 -1 6;
#N canvas 1973 64 1194 737 mic 0;
#X obj 105 165 *~;
#X obj 106 206 outlet~;
#X floatatom 188 157 5 0 0 0 - - -;
#X obj 262 115 inlet taster;
#X obj 100 121 *~ 0.1;
#X obj 155 69 adc~;
#X connect 0 0 1 0;
#X connect 2 0 0 1;
#X connect 3 0 2 0;
#X connect 4 0 0 0;
#X connect 5 0 4 0;
#X restore 1011 361 pd mic in;
#X obj 1010 361 tgl 15 0 empty empty empty 17 7 0 10 -262144 -1 -1
0 1;
#X obj 991 341 hradio 8 1 0 1 empty empty Mic_In 0 -8 1 15 -262144
-1 -1 0;
#X text 1177 301 test signals;
#N canvas 0 23 358 309 waveform 0;
#X obj 132 173 tabwrite~ waveform;
#X obj 134 134 metro 100;
#X obj 139 153 r~ spec;
#X obj 107 80 inlet schalter;
#X connect 1 0 0 0;
#X connect 2 0 0 0;
#X connect 3 0 1 0;
#X restore 874 596 pd waveform;
#X obj 22 52 tgl 15 0 empty empty empty 17 7 0 10 -262144 -1 -1 0 1
;
#X msg 22 92 \; pd dsp \$1;
#X text 67 51 <-- DSP on/off;
#X text 993 111 Click on a toggle to choose the desired audio source
;
#N canvas 368 301 1206 535 algorithms_help 0;
#X text 237 77 ARRY;
#X text 14 26 SOFT CLIP WAVESHAPER ALGORITHMS;
#X text 216 52 Acronym;
#X text 149 53 Name;
#X text 136 77 Arraya;
#X text 330 74 y = 3x/2 *(1-x²/3);
#X text 130 102 Sigmoid;
#X text 243 100 SIG;
#X text 330 96 y = 2*(1/(1+e^(-kx))-1;
#X text 123 128 Sigmoid2;
#X text 237 124 SIG2;
#X text 675 93 you can adjust Saturation for this algorithm!;
#X text 53 150 Hyperbolic Tangent;
#X text 109 174 Arctangent;
#X text 53 197 Fuzz Exponential 1;
#X text 237 148 TANH;
#X text 237 172 ATAN;
#X text 330 144 y = tanh(kx)/tanh(k);
#X text 330 168 y = arctan(kx)/arctan(k);
#X text 676 143 you can adjust Saturation for this algorithm!;
#X text 677 168 you can adjust Saturation for this algorithm!;
#X text 330 193 y = sgn(x)*((1-e^(-|kx|))/((1-e^(-k));
#X text 36 254 EXOTIC DISTORTION ALGORITHMS;
#X text 53 285 Fuzz Exponential 2;
#X text 230 284 FEXP2;
#X text 230 195 FEXP1;
#X text 326 284 y = sgn(-x)*((1-e^(-|x|))/(e-1);
#X text 676 40 sgn(x) = -1 for x < 0 and sgn(x) = +1 for x>=0;
#X text 25 313 Arctangent Square Root;
#X text 237 311 ATSR;
#X text 325 312 y = 2.5*tan^(-1)*(0.9x)+2.5*sqrt((1-(0.9x)²)-2.5;
#X text 102 341 Square Sign;
#X text 244 339 SQS;
#X text 326 339 y = x²*sgn(x);
#X text 330 120 y = ((e^x-1)*(e+1))/((e^x+1)*(e-1));
#X text 151 369 Cube;
#X text 237 368 CUBE;
#X text 326 366 y = x³;
#X text 678 367 recommended only with low Q values;
#X text 53 396 HalfWave Rectifier;
#X text 39 424 Full-Wave Recitifier;
#X text 109 450 Square Law;
#X text 40 476 Absolute Square Root;
#X text 244 396 HWR;
#X text 244 422 FWR;
#X text 244 449 SQR;
#X text 230 474 ASQRT;
#X text 679 396 recommended only with low Q values;
#X text 326 395 y = 0.5(x+|x|);
#X text 326 421 y = |x|;
#X text 326 447 y = x²;
#X text 326 473 y = sqrt(|x|);
#X text 680 281 use with caution;
#X restore 22 191 pd algorithms_help;
#X text 1346 299 Here you can load the Test Wav File;
#N canvas 1994 784 450 300 introduction 0;
#X text 23 62 First you can load the Audiofile that is stored in the
Folder "Pure Data". Select a distorion Algorithm at the left side of
the help patch and modify the filter with the three filter faders (violet).
Frequency is for the Frequency Band that is selected \, the Quality
for the width of the Band (lower Q = wider Band) and Gain is for the
loudness of the filter. WIth a high gain you can let the filter scream.
When you are fine change the mix dry/wet to still hear the original
Signal.;
#X text 25 32 INTRODUCTION;
#X restore 22 148 pd introduction;
#X connect 1 0 17 0;
#X connect 3 0 1 0;
#X connect 4 0 52 0;
#X connect 5 0 10 0;
#X connect 6 0 5 0;
#X connect 7 0 94 0;
#X connect 8 0 56 0;
#X connect 9 0 77 0;
#X connect 10 0 49 0;
#X connect 11 0 43 0;
#X connect 12 0 11 0;
#X connect 13 0 14 0;
#X connect 14 0 15 0;
#X connect 15 0 45 0;
#X connect 16 0 48 0;
#X connect 16 0 0 0;
#X connect 16 0 0 1;
#X connect 17 0 57 0;
#X connect 18 0 9 0;
#X connect 19 0 8 0;
#X connect 43 0 42 0;
#X connect 44 0 16 0;
#X connect 46 0 16 0;
#X connect 47 0 16 0;
#X connect 50 0 16 0;
#X connect 53 0 16 0;
#X connect 54 0 9 0;
#X connect 55 0 16 0;
#X connect 58 0 16 0;
#X connect 59 0 60 0;
#X connect 60 0 61 0;
#X connect 61 0 62 0;
#X connect 63 0 16 0;
#X connect 77 0 4 0;
#X connect 78 0 86 0;
#X connect 79 0 86 1;
#X connect 80 0 86 2;
#X connect 82 0 83 0;
#X connect 83 0 81 0;
#X connect 84 0 81 0;
#X connect 85 0 84 0;
#X connect 86 0 81 0;
#X connect 90 0 81 0;
#X connect 91 0 90 0;
#X connect 95 0 96 0;
